<svg id="Layer_1" data-name="Layer 1" xmlns="http://www.w3.org/2000/svg" viewBox="0 0 931.04 245"><defs><style>.cls-1,.cls-2,.cls-3{fill:#fff;}.cls-1{fill-rule:evenodd;}.cls-3{font-size:29.49px;font-family:Montserrat-Medium, Montserrat;font-weight:500;}.cls-4{letter-spacing:-0.01em;}.cls-5{letter-spacing:-0.05em;}.cls-6{letter-spacing:0em;}.cls-7{letter-spacing:-0.01em;}.cls-8{letter-spacing:0em;}.cls-9{letter-spacing:0em;}.cls-10{letter-spacing:-0.02em;}.cls-11{letter-spacing:-0.02em;}.cls-12{letter-spacing:-0.05em;}.cls-13{letter-spacing:0.01em;}.cls-14{letter-spacing:-0.01em;}.cls-15{letter-spacing:-0.01em;}.cls-16{letter-spacing:-0.01em;}.cls-17{letter-spacing:-0.01em;}.cls-18{fill:none;stroke:#fff;stroke-miterlimit:10;stroke-width:2px;}</style></defs><path class="cls-1" d="M195.82,105s17.94-15.11,22.46-16.79l-19.4-48.53a10.74,10.74,0,0,0-5.57,6.85l16.38,41.68S196.32,99.41,195.82,105Zm6.07-1.68s25.69-14.38,28.76-15.11L213.26,41.33s-4.79,3.21-4.57,5.62,15.38,41.23,15.38,41.23-19.39,9.27-22.18,15.11ZM173.13,60.6l19.17,47.29a46,46,0,0,1,10.37-20.22L183.5,40.38A46,46,0,0,0,173.13,60.6Zm7.64,38.08c.89,0,1.78.06,2.62.11v10.45a20.35,20.35,0,0,0-2.62-.17c-10.2,0-18.51,8-18.51,17.86s8.31,17.81,18.51,17.81h1.39A22.73,22.73,0,0,1,179,133.17c0-12.92,10.81-23.37,24.19-23.37a24.21,24.21,0,0,1,21.18,12.08,24.26,24.26,0,0,1,21.18-12.08h1.33v9.61a23.75,23.75,0,0,1,18.79-9.1,23.31,23.31,0,0,1,22,15,26.16,26.16,0,0,1,1.62,4.32l26.19.06v6.85h-25a14.13,14.13,0,0,0,13.6,10.05,13.63,13.63,0,1,0,0-27.24A14.49,14.49,0,0,0,294,123.51L287.61,117a23.87,23.87,0,0,1,36.78,4.5h0a24.26,24.26,0,0,1,21-11.69h1.34v9.78c-.45,0-.89-.06-1.34-.06-8.25,0-11.09,3.31-11.09,9.32V155.3h-9.87V144.46a23.78,23.78,0,0,1-42.24-3.76,38.31,38.31,0,0,1-1.62-4.39l-26.14-.05v-6.85h24.92a14,14,0,0,0-13.6-10.06,13.63,13.63,0,1,0,0,27.24,14.27,14.27,0,0,0,10.14-4.15l6.46,6.51a23.63,23.63,0,0,1-16.6,6.69c-12.93,0-23.41-10.17-23.41-22.64a22.11,22.11,0,0,1,4.51-13.42c-.39,0-.83-.06-1.22-.06-8.25,0-11.1,3.31-11.1,9.32V155.3H216.33V130.25c-1.4-6.12-4.85-10.73-13.1-10.73a13.66,13.66,0,1,0,0,27.3,14.32,14.32,0,0,0,10.09-4.1v11.74a25.14,25.14,0,0,1-10.09,2.13,24.42,24.42,0,0,1-19.84-10v8.48c-.84.06-1.73.12-2.62.12-16.17,0-29.26-12.7-29.26-28.26s13.09-28.25,29.26-28.25Z"/><path class="cls-1" d="M347.41,92.45a6.73,6.73,0,0,1,3.24.78,6.39,6.39,0,0,1,2.45,2.36,6.11,6.11,0,0,1,0,6.35,5.93,5.93,0,0,1-2.45,2.36,6.66,6.66,0,0,1-3.24.84,6.85,6.85,0,0,1-3.29-.84,6,6,0,0,1-2.39-2.36,6.11,6.11,0,0,1,0-6.35,6.25,6.25,0,0,1,2.45-2.36,6.56,6.56,0,0,1,3.23-.78Zm0,1.23a6.25,6.25,0,0,0-2.62.62,5.32,5.32,0,0,0-2,1.91,5.39,5.39,0,0,0-.72,2.58,5.14,5.14,0,0,0,.72,2.53,5,5,0,0,0,2,1.91,5.39,5.39,0,0,0,5.24,0,4.85,4.85,0,0,0,2-1.91,4.6,4.6,0,0,0,.73-2.53,5.29,5.29,0,0,0-.73-2.58,4.9,4.9,0,0,0-2-1.91,6.22,6.22,0,0,0-2.62-.62Zm-3,8.48V95.42h1.39a15.37,15.37,0,0,1,2.23.06,3.08,3.08,0,0,1,1.12.22,2.53,2.53,0,0,1,.61.68,1.88,1.88,0,0,1,.28,1,1.68,1.68,0,0,1-.5,1.24,2.49,2.49,0,0,1-1.4.67,2,2,0,0,1,.5.23,4.08,4.08,0,0,1,.45.5c.06.12.22.34.56.85l.78,1.34h-1.73l-.56-1.06a4.08,4.08,0,0,0-1-1.41,1.58,1.58,0,0,0-.95-.28h-.39v2.75Zm1.39-3.82h.56a7.22,7.22,0,0,0,1.56-.11,1.22,1.22,0,0,0,.45-.28,1,1,0,0,0,.16-.56.64.64,0,0,0-.16-.45.85.85,0,0,0-.51-.34,6.74,6.74,0,0,0-1.5-.11h-.56Z"/><path class="cls-2" d="M165.07,181.16a6.43,6.43,0,0,1,0,.65,2.66,2.66,0,0,1-.07.45,1.19,1.19,0,0,1-.12.32,1.47,1.47,0,0,1-.24.32,3.54,3.54,0,0,1-.64.45,7.92,7.92,0,0,1-1.15.52,10.74,10.74,0,0,1-1.57.42,10.35,10.35,0,0,1-1.9.16,10.11,10.11,0,0,1-3.62-.62A7.11,7.11,0,0,1,153,182a8.36,8.36,0,0,1-1.74-3.09,15.55,15.55,0,0,1,.06-8.76,9.39,9.39,0,0,1,1.86-3.27,7.64,7.64,0,0,1,2.85-2,9.43,9.43,0,0,1,3.66-.68,9,9,0,0,1,1.57.13,9.09,9.09,0,0,1,1.39.36,7.65,7.65,0,0,1,1.15.51,3.09,3.09,0,0,1,.71.49,1.68,1.68,0,0,1,.28.34,1.3,1.3,0,0,1,.12.35c0,.15.05.31.07.5s0,.43,0,.72,0,.56,0,.77a2.08,2.08,0,0,1-.1.52.64.64,0,0,1-.19.29.31.31,0,0,1-.23.08,1,1,0,0,1-.57-.26,8.84,8.84,0,0,0-.9-.59,8.49,8.49,0,0,0-1.31-.6,5.72,5.72,0,0,0-1.81-.26,4.36,4.36,0,0,0-2.07.48,4.48,4.48,0,0,0-1.55,1.36,6.4,6.4,0,0,0-1,2.16,11.13,11.13,0,0,0-.33,2.84,11.42,11.42,0,0,0,.35,3,5.74,5.74,0,0,0,1,2.09,4.09,4.09,0,0,0,1.58,1.23,5.14,5.14,0,0,0,2.08.39,5.8,5.8,0,0,0,1.82-.25,7.19,7.19,0,0,0,1.32-.55,8.73,8.73,0,0,0,.9-.55,1.14,1.14,0,0,1,.55-.24.43.43,0,0,1,.24.06.45.45,0,0,1,.15.25,2.37,2.37,0,0,1,.09.51Q165.07,180.61,165.07,181.16Z"/><path class="cls-2" d="M179,183.66a.42.42,0,0,1-.15.34,1.24,1.24,0,0,1-.47.18,7.46,7.46,0,0,1-1,0,7.26,7.26,0,0,1-1,0A1,1,0,0,1,176,184a.44.44,0,0,1-.13-.34v-1.08A6,6,0,0,1,174,184a5.36,5.36,0,0,1-2.35.51,6.56,6.56,0,0,1-2-.29,4.39,4.39,0,0,1-1.54-.83,3.76,3.76,0,0,1-1-1.37,4.77,4.77,0,0,1-.36-1.92,4.32,4.32,0,0,1,.46-2.06,3.77,3.77,0,0,1,1.37-1.44,6.74,6.74,0,0,1,2.26-.84,16.23,16.23,0,0,1,3.15-.28h1.31v-.82a4.08,4.08,0,0,0-.13-1.11,2,2,0,0,0-.42-.8,1.71,1.71,0,0,0-.78-.47,4.28,4.28,0,0,0-1.22-.15,6.25,6.25,0,0,0-1.69.21,10.58,10.58,0,0,0-1.32.47c-.38.17-.7.33-.95.47a1.32,1.32,0,0,1-.63.21.39.39,0,0,1-.29-.11.64.64,0,0,1-.21-.3,1.84,1.84,0,0,1-.13-.48,4.22,4.22,0,0,1,0-.64,2.88,2.88,0,0,1,.07-.74,1.12,1.12,0,0,1,.29-.49,3,3,0,0,1,.73-.5,11.89,11.89,0,0,1,1.24-.49,10.54,10.54,0,0,1,1.54-.37,10.79,10.79,0,0,1,1.72-.14,10.08,10.08,0,0,1,2.7.31,4.52,4.52,0,0,1,1.85,1,3.7,3.7,0,0,1,1,1.66,7.84,7.84,0,0,1,.33,2.41Zm-3.71-5.79h-1.45a7.77,7.77,0,0,0-1.56.13,3,3,0,0,0-1.06.41,1.61,1.61,0,0,0-.59.66,2,2,0,0,0-.19.89,1.72,1.72,0,0,0,.53,1.33,2.11,2.11,0,0,0,1.49.49,2.75,2.75,0,0,0,1.46-.41,5.85,5.85,0,0,0,1.37-1.2Z"/><path class="cls-2" d="M192.29,171.33c0,.37,0,.66,0,.9a3,3,0,0,1-.09.55.56.56,0,0,1-.15.27.41.41,0,0,1-.25.07.71.71,0,0,1-.27-.05l-.34-.11a4,4,0,0,0-.41-.11,2,2,0,0,0-.5-.06,1.58,1.58,0,0,0-.63.13,3,3,0,0,0-.66.4,5.51,5.51,0,0,0-.7.73c-.25.31-.51.68-.8,1.12v8.45a.43.43,0,0,1-.08.27.69.69,0,0,1-.32.18,2.24,2.24,0,0,1-.57.12,10.6,10.6,0,0,1-1.84,0,2.44,2.44,0,0,1-.58-.12.71.71,0,0,1-.31-.18.44.44,0,0,1-.09-.27V170.07a.45.45,0,0,1,.08-.26.52.52,0,0,1,.27-.19,2.45,2.45,0,0,1,.5-.12c.21,0,.47,0,.78,0s.58,0,.8,0a2.05,2.05,0,0,1,.49.12.62.62,0,0,1,.25.19.53.53,0,0,1,.07.26v1.69a10.68,10.68,0,0,1,1-1.26,6.61,6.61,0,0,1,.89-.78,2.92,2.92,0,0,1,.84-.4,3.08,3.08,0,0,1,.84-.11,3.24,3.24,0,0,1,.43,0,4,4,0,0,1,.46.07l.42.12a.85.85,0,0,1,.26.15.52.52,0,0,1,.13.17,1.85,1.85,0,0,1,.06.25,3.36,3.36,0,0,1,.05.48C192.29,170.68,192.29,171,192.29,171.33Z"/><path class="cls-2" d="M206.35,176.45a1.51,1.51,0,0,1-.31,1,1.12,1.12,0,0,1-.85.34H197a5.91,5.91,0,0,0,.2,1.57,3,3,0,0,0,.65,1.2,2.77,2.77,0,0,0,1.14.75,4.94,4.94,0,0,0,1.68.26,10.09,10.09,0,0,0,1.75-.14c.5-.1.93-.21,1.3-.32s.67-.22.91-.33a1.77,1.77,0,0,1,.58-.14.39.39,0,0,1,.23.06.34.34,0,0,1,.15.19,1.08,1.08,0,0,1,.08.38,5.53,5.53,0,0,1,0,.63c0,.23,0,.42,0,.57a4.07,4.07,0,0,1,0,.41.72.72,0,0,1-.1.27,1.14,1.14,0,0,1-.15.23,2.73,2.73,0,0,1-.54.29,9.3,9.3,0,0,1-1.11.35,15.13,15.13,0,0,1-1.55.31,13.58,13.58,0,0,1-1.86.13,9.85,9.85,0,0,1-3.14-.46,5.61,5.61,0,0,1-2.25-1.39,5.76,5.76,0,0,1-1.35-2.33,11,11,0,0,1-.44-3.31,10.65,10.65,0,0,1,.46-3.26,6.67,6.67,0,0,1,1.36-2.46,5.67,5.67,0,0,1,2.16-1.54,7.22,7.22,0,0,1,2.86-.53,7.59,7.59,0,0,1,2.89.5,5.1,5.1,0,0,1,2,1.39,5.75,5.75,0,0,1,1.13,2.1,9.26,9.26,0,0,1,.36,2.64Zm-3.67-1.09a4,4,0,0,0-.64-2.53,2.49,2.49,0,0,0-2.12-.92,2.78,2.78,0,0,0-1.26.27,2.64,2.64,0,0,0-.88.74,3.18,3.18,0,0,0-.54,1.09,5.29,5.29,0,0,0-.22,1.35Z"/><path class="cls-2" d="M222.48,176.45a1.51,1.51,0,0,1-.31,1,1.12,1.12,0,0,1-.85.34h-8.17a5.53,5.53,0,0,0,.2,1.57,2.91,2.91,0,0,0,.65,1.2,2.71,2.71,0,0,0,1.14.75,4.94,4.94,0,0,0,1.68.26,9.88,9.88,0,0,0,1.74-.14c.5-.1.94-.21,1.31-.32a8.58,8.58,0,0,0,.9-.33,1.82,1.82,0,0,1,.59-.14.41.41,0,0,1,.23.06.34.34,0,0,1,.15.19,1.37,1.37,0,0,1,.08.38,5.83,5.83,0,0,1,0,.63c0,.23,0,.42,0,.57a3.83,3.83,0,0,1-.05.41,1,1,0,0,1-.09.27.87.87,0,0,1-.16.23,2.28,2.28,0,0,1-.53.29,9.3,9.3,0,0,1-1.11.35,15.13,15.13,0,0,1-1.55.31,13.73,13.73,0,0,1-1.87.13,9.83,9.83,0,0,1-3.13-.46,5.42,5.42,0,0,1-3.6-3.72,11,11,0,0,1-.45-3.31,10.65,10.65,0,0,1,.47-3.26,6.8,6.8,0,0,1,1.35-2.46,5.83,5.83,0,0,1,2.16-1.54,7.3,7.3,0,0,1,2.87-.53,7.54,7.54,0,0,1,2.88.5,5.14,5.14,0,0,1,2,1.39,5.59,5.59,0,0,1,1.12,2.1,8.91,8.91,0,0,1,.37,2.64Zm-3.68-1.09a4,4,0,0,0-.63-2.53,2.49,2.49,0,0,0-2.12-.92,2.78,2.78,0,0,0-1.26.27,2.64,2.64,0,0,0-.88.74,3.18,3.18,0,0,0-.54,1.09,5.29,5.29,0,0,0-.22,1.35Z"/><path class="cls-2" d="M234.83,171.33c0,.37,0,.66,0,.9a3,3,0,0,1-.09.55.5.5,0,0,1-.16.27.41.41,0,0,1-.25.07.71.71,0,0,1-.27-.05l-.34-.11a3.44,3.44,0,0,0-.41-.11,2,2,0,0,0-.5-.06,1.58,1.58,0,0,0-.63.13,3,3,0,0,0-.66.4,6.23,6.23,0,0,0-.7.73,12.37,12.37,0,0,0-.79,1.12v8.45a.44.44,0,0,1-.09.27.61.61,0,0,1-.31.18,2.33,2.33,0,0,1-.58.12,7.86,7.86,0,0,1-.92,0,7.67,7.67,0,0,1-.91,0,2.33,2.33,0,0,1-.58-.12.61.61,0,0,1-.31-.18.44.44,0,0,1-.09-.27V170.07a.44.44,0,0,1,.07-.26.52.52,0,0,1,.27-.19,2.4,2.4,0,0,1,.51-.12,7.64,7.64,0,0,1,.77,0c.32,0,.59,0,.8,0a2.05,2.05,0,0,1,.49.12.62.62,0,0,1,.25.19.44.44,0,0,1,.07.26v1.69a10.68,10.68,0,0,1,1-1.26,7.28,7.28,0,0,1,.89-.78,3,3,0,0,1,.85-.4,3,3,0,0,1,.84-.11,3.1,3.1,0,0,1,.42,0,4.47,4.47,0,0,1,.47.07l.41.12a.92.92,0,0,1,.27.15.38.38,0,0,1,.12.17,1,1,0,0,1,.07.25,3.75,3.75,0,0,1,0,.48C234.82,170.68,234.83,171,234.83,171.33Z"/><path class="cls-2" d="M248,183.59a.39.39,0,0,1-.1.27.63.63,0,0,1-.32.2,3.27,3.27,0,0,1-.61.12,9.15,9.15,0,0,1-1.91,0,3.4,3.4,0,0,1-.62-.12.68.68,0,0,1-.32-.2.44.44,0,0,1-.09-.27V165a.49.49,0,0,1,.09-.28.74.74,0,0,1,.33-.19,3.45,3.45,0,0,1,.61-.12,9.15,9.15,0,0,1,1.91,0,3.27,3.27,0,0,1,.61.12.7.7,0,0,1,.32.19.44.44,0,0,1,.1.28Z"/><path class="cls-2" d="M265.44,183.62a.44.44,0,0,1-.09.27.61.61,0,0,1-.3.18,2.33,2.33,0,0,1-.58.12,7.89,7.89,0,0,1-.91,0,8.15,8.15,0,0,1-.93,0,2.33,2.33,0,0,1-.58-.12.61.61,0,0,1-.3-.18.44.44,0,0,1-.09-.27v-7.73a6.87,6.87,0,0,0-.14-1.55,2.91,2.91,0,0,0-.42-1,1.85,1.85,0,0,0-.7-.63,2.2,2.2,0,0,0-1-.22,2.52,2.52,0,0,0-1.45.53,7.77,7.77,0,0,0-1.54,1.55v9a.44.44,0,0,1-.09.27.61.61,0,0,1-.31.18,2.33,2.33,0,0,1-.58.12,10.49,10.49,0,0,1-1.83,0,2.33,2.33,0,0,1-.58-.12.61.61,0,0,1-.31-.18.44.44,0,0,1-.09-.27V170.07a.44.44,0,0,1,.07-.26.55.55,0,0,1,.28-.19,2.15,2.15,0,0,1,.5-.12c.21,0,.46,0,.77,0s.59,0,.8,0a1.93,1.93,0,0,1,.49.12.5.5,0,0,1,.25.19.44.44,0,0,1,.07.26v1.57a8.52,8.52,0,0,1,2.27-1.82,5,5,0,0,1,2.4-.61,5.35,5.35,0,0,1,2.31.45,4.12,4.12,0,0,1,1.52,1.24,5,5,0,0,1,.83,1.83,10.79,10.79,0,0,1,.26,2.52Z"/><path class="cls-2" d="M278.23,179.79a4.71,4.71,0,0,1-.42,2,4.11,4.11,0,0,1-1.21,1.47,5.44,5.44,0,0,1-1.86.89,8.9,8.9,0,0,1-2.31.3,8.39,8.39,0,0,1-1.44-.12,7.68,7.68,0,0,1-1.23-.29,5.79,5.79,0,0,1-.9-.36,2.76,2.76,0,0,1-.53-.33,1.11,1.11,0,0,1-.25-.51,4.17,4.17,0,0,1-.09-1,6.41,6.41,0,0,1,0-.7,1.88,1.88,0,0,1,.09-.43.36.36,0,0,1,.15-.21.38.38,0,0,1,.22-.05,1,1,0,0,1,.49.19c.22.12.49.26.81.41a9.81,9.81,0,0,0,1.12.43,5,5,0,0,0,1.45.2,3.6,3.6,0,0,0,.91-.11,2,2,0,0,0,.69-.31,1.15,1.15,0,0,0,.45-.5,1.54,1.54,0,0,0,.15-.7,1.15,1.15,0,0,0-.28-.78,2.43,2.43,0,0,0-.74-.57,9.08,9.08,0,0,0-1-.45c-.39-.14-.79-.3-1.19-.47a10.19,10.19,0,0,1-1.19-.6,4.34,4.34,0,0,1-1-.81,3.82,3.82,0,0,1-.74-1.18,4.39,4.39,0,0,1-.28-1.64,4.21,4.21,0,0,1,.38-1.78,3.94,3.94,0,0,1,1.08-1.39,5.14,5.14,0,0,1,1.73-.89,7.59,7.59,0,0,1,2.27-.32,7.05,7.05,0,0,1,1.23.09,8.82,8.82,0,0,1,1.08.23,4.68,4.68,0,0,1,.81.29,3.15,3.15,0,0,1,.47.27.86.86,0,0,1,.21.23,1.54,1.54,0,0,1,.09.28,3.14,3.14,0,0,1,0,.39,5.07,5.07,0,0,1,0,.59,6.24,6.24,0,0,1,0,.66,1.42,1.42,0,0,1-.08.42.34.34,0,0,1-.14.2.46.46,0,0,1-.21,0,1,1,0,0,1-.42-.16c-.19-.1-.43-.22-.71-.34a9.65,9.65,0,0,0-1-.34,4.57,4.57,0,0,0-1.28-.16,3.33,3.33,0,0,0-.89.11,1.71,1.71,0,0,0-.62.3,1.31,1.31,0,0,0-.36.46,1.39,1.39,0,0,0-.12.57,1.13,1.13,0,0,0,.29.79,2.11,2.11,0,0,0,.75.56,7,7,0,0,0,1.06.46c.39.14.8.3,1.2.47a8.91,8.91,0,0,1,1.21.58,4.7,4.7,0,0,1,1.06.82,3.74,3.74,0,0,1,.75,1.16A4.09,4.09,0,0,1,278.23,179.79Z"/><path class="cls-2" d="M293.66,169.56a1.17,1.17,0,0,1,.88.27,1.15,1.15,0,0,1,.25.79v13a.44.44,0,0,1-.09.27.67.67,0,0,1-.3.18,2.33,2.33,0,0,1-.58.12,7.89,7.89,0,0,1-.91,0,8.15,8.15,0,0,1-.93,0,2.24,2.24,0,0,1-.58-.12.61.61,0,0,1-.3-.18.44.44,0,0,1-.09-.27v-11h-6V179a3.19,3.19,0,0,0,.34,1.66,1.34,1.34,0,0,0,1.24.55,2.26,2.26,0,0,0,.54,0,3.75,3.75,0,0,0,.43-.12l.31-.12a.6.6,0,0,1,.24-.06.27.27,0,0,1,.17.06.33.33,0,0,1,.13.21c0,.11.05.25.08.43a4.64,4.64,0,0,1,0,.7,4.39,4.39,0,0,1-.08,1,1.12,1.12,0,0,1-.21.5,1,1,0,0,1-.4.28,4.29,4.29,0,0,1-.63.19,5.46,5.46,0,0,1-.76.13,7.89,7.89,0,0,1-.84.05,6.08,6.08,0,0,1-2-.29,3.3,3.3,0,0,1-1.37-.89,3.81,3.81,0,0,1-.79-1.51,8,8,0,0,1-.26-2.16v-6.93h-1.61c-.19,0-.33-.13-.43-.36a3.15,3.15,0,0,1-.16-1.2,7.32,7.32,0,0,1,0-.74,2.08,2.08,0,0,1,.12-.48.54.54,0,0,1,.18-.25.5.5,0,0,1,.27-.07h1.59v-3a.51.51,0,0,1,.08-.28.62.62,0,0,1,.31-.2,2,2,0,0,1,.58-.12,7.64,7.64,0,0,1,.91-.05,7.88,7.88,0,0,1,.93.05,2,2,0,0,1,.58.12.63.63,0,0,1,.3.2.45.45,0,0,1,.09.28v3Zm1.43-4.08a2.15,2.15,0,0,1-.47,1.6,3.68,3.68,0,0,1-3.45,0,2.1,2.1,0,0,1-.44-1.54,2.23,2.23,0,0,1,.45-1.6,3.62,3.62,0,0,1,3.46,0A2.11,2.11,0,0,1,295.09,165.48Z"/><path class="cls-2" d="M306.32,182.28a4.49,4.49,0,0,1-.08,1,1.06,1.06,0,0,1-.22.51,1.15,1.15,0,0,1-.4.26,3.68,3.68,0,0,1-.61.19,5.61,5.61,0,0,1-.77.13,7.7,7.7,0,0,1-.83.05,6,6,0,0,1-2-.29,3.23,3.23,0,0,1-1.37-.89,3.7,3.7,0,0,1-.8-1.51,8.06,8.06,0,0,1-.25-2.16v-6.93h-1.61a.5.5,0,0,1-.44-.36,3.41,3.41,0,0,1-.15-1.2,5.22,5.22,0,0,1,0-.74,1.7,1.7,0,0,1,.11-.48.55.55,0,0,1,.19-.25.44.44,0,0,1,.26-.07H299v-3a.51.51,0,0,1,.08-.28.58.58,0,0,1,.3-.2,2,2,0,0,1,.59-.12,8.4,8.4,0,0,1,1.83,0,1.88,1.88,0,0,1,.58.12.63.63,0,0,1,.3.2.45.45,0,0,1,.09.28v3h2.92a.5.5,0,0,1,.27.07.74.74,0,0,1,.19.25,2.89,2.89,0,0,1,.11.48c0,.2,0,.45,0,.74a3.73,3.73,0,0,1-.14,1.2c-.11.23-.25.36-.44.36H302.8V179a3.18,3.18,0,0,0,.35,1.66,1.33,1.33,0,0,0,1.23.55,2.21,2.21,0,0,0,.54,0,2.87,2.87,0,0,0,.43-.12l.32-.12a.53.53,0,0,1,.23-.06.27.27,0,0,1,.17.06.3.3,0,0,1,.13.21c0,.11.06.25.09.43A6.81,6.81,0,0,1,306.32,182.28Z"/><path class="cls-2" d="M322.84,183.62a.5.5,0,0,1-.08.27.48.48,0,0,1-.26.18,1.83,1.83,0,0,1-.5.12,5.5,5.5,0,0,1-.77,0,6,6,0,0,1-.81,0,1.85,1.85,0,0,1-.49-.12.49.49,0,0,1-.25-.18.5.5,0,0,1-.08-.27v-1.56a8.53,8.53,0,0,1-2.26,1.82,5.11,5.11,0,0,1-2.39.61,5.33,5.33,0,0,1-2.32-.46,4.14,4.14,0,0,1-1.52-1.24,5.18,5.18,0,0,1-.83-1.83,11.82,11.82,0,0,1-.24-2.59v-8.3a.38.38,0,0,1,.08-.26.54.54,0,0,1,.3-.19,2.9,2.9,0,0,1,.58-.12c.25,0,.55,0,.91,0s.68,0,.92,0a2.9,2.9,0,0,1,.58.12.61.61,0,0,1,.31.19.39.39,0,0,1,.09.26v7.65a6.8,6.8,0,0,0,.14,1.63,2.76,2.76,0,0,0,.41,1,1.85,1.85,0,0,0,.71.62,2.23,2.23,0,0,0,1,.22,2.49,2.49,0,0,0,1.45-.53,9.39,9.39,0,0,0,1.56-1.55v-9a.38.38,0,0,1,.08-.26.54.54,0,0,1,.3-.19,2.9,2.9,0,0,1,.58-.12c.24,0,.55,0,.92,0s.68,0,.91,0a2.9,2.9,0,0,1,.58.12.62.62,0,0,1,.3.19.39.39,0,0,1,.09.26Z"/><path class="cls-2" d="M334.22,182.28a5.16,5.16,0,0,1-.08,1,1.17,1.17,0,0,1-.22.51,1.26,1.26,0,0,1-.4.26,3.81,3.81,0,0,1-.62.19,5.46,5.46,0,0,1-.76.13,7.89,7.89,0,0,1-.84.05,6,6,0,0,1-2-.29,3.2,3.2,0,0,1-1.36-.89,3.58,3.58,0,0,1-.8-1.51,8,8,0,0,1-.26-2.16v-6.93h-1.61c-.19,0-.33-.13-.44-.36a3.73,3.73,0,0,1-.14-1.2c0-.29,0-.54,0-.74a2.89,2.89,0,0,1,.11-.48.74.74,0,0,1,.19-.25.5.5,0,0,1,.27-.07h1.59v-3a.45.45,0,0,1,.09-.28.54.54,0,0,1,.3-.2,2,2,0,0,1,.58-.12,7.64,7.64,0,0,1,.91-.05,7.88,7.88,0,0,1,.93.05,1.88,1.88,0,0,1,.58.12.63.63,0,0,1,.3.2.45.45,0,0,1,.09.28v3h2.92a.44.44,0,0,1,.26.07.55.55,0,0,1,.19.25,1.7,1.7,0,0,1,.11.48,5.22,5.22,0,0,1,0,.74,3.41,3.41,0,0,1-.15,1.2.5.5,0,0,1-.44.36H330.7V179a3.08,3.08,0,0,0,.35,1.66,1.33,1.33,0,0,0,1.23.55,2.26,2.26,0,0,0,.54,0,3.75,3.75,0,0,0,.43-.12l.32-.12a.53.53,0,0,1,.23-.06.27.27,0,0,1,.17.06.38.38,0,0,1,.13.21,2.78,2.78,0,0,1,.08.43A4.64,4.64,0,0,1,334.22,182.28Z"/><path class="cls-2" d="M349,176.45a1.51,1.51,0,0,1-.31,1,1.12,1.12,0,0,1-.85.34h-8.17a5.91,5.91,0,0,0,.2,1.57,3,3,0,0,0,.65,1.2,2.71,2.71,0,0,0,1.14.75,4.94,4.94,0,0,0,1.68.26,9.88,9.88,0,0,0,1.74-.14c.51-.1.94-.21,1.31-.32a8.58,8.58,0,0,0,.9-.33,1.87,1.87,0,0,1,.59-.14.41.41,0,0,1,.23.06.34.34,0,0,1,.15.19,1.08,1.08,0,0,1,.08.38,5.83,5.83,0,0,1,0,.63c0,.23,0,.42,0,.57a4.07,4.07,0,0,1,0,.41,1,1,0,0,1-.1.27,1.14,1.14,0,0,1-.15.23,2.73,2.73,0,0,1-.54.29,9.3,9.3,0,0,1-1.11.35,15.13,15.13,0,0,1-1.55.31,13.61,13.61,0,0,1-1.87.13,9.87,9.87,0,0,1-3.13-.46,5.42,5.42,0,0,1-3.6-3.72,11,11,0,0,1-.44-3.31,10.65,10.65,0,0,1,.46-3.26,6.67,6.67,0,0,1,1.36-2.46,5.67,5.67,0,0,1,2.16-1.54,7.22,7.22,0,0,1,2.86-.53,7.5,7.5,0,0,1,2.88.5,5.07,5.07,0,0,1,2,1.39,5.75,5.75,0,0,1,1.13,2.1,9.26,9.26,0,0,1,.36,2.64Zm-3.68-1.09a3.92,3.92,0,0,0-.63-2.53,2.49,2.49,0,0,0-2.12-.92,2.71,2.71,0,0,0-1.25.27,2.58,2.58,0,0,0-.89.74,3.18,3.18,0,0,0-.54,1.09,5.29,5.29,0,0,0-.22,1.35Z"/><path class="cls-2" d="M351.1,167.85v-5.28h-1.87v-1.08h5v1.08h-1.87v5.28Z"/><path class="cls-2" d="M355.52,167.85v-6.36h1.91l1.14,4.34,1.13-4.34h1.91v6.36h-1.18v-5l-1.25,5H358l-1.24-5v5Z"/><text class="cls-3" transform="translate(409.72 92.75)"><tspan class="cls-4">T<tspan class="cls-5" x="16.93" y="0">r</tspan><tspan class="cls-6" x="27.67" y="0">ainings</tspan></tspan><tspan x="0" y="34.95">Study Ab</tspan><tspan class="cls-7" x="136.73" y="34.95">r</tspan><tspan class="cls-8" x="148.47" y="34.95">o</tspan><tspan class="cls-9" x="167.05" y="34.95">ad</tspan><tspan class="cls-10" x="0" y="69.9">C</tspan><tspan x="20.68" y="69.9">ompu</tspan><tspan class="cls-11" x="110.66" y="69.9">t</tspan><tspan x="122.34" y="69.9">er Based </tspan><tspan class="cls-12" x="261.26" y="69.9">T</tspan><tspan x="276.95" y="69.9">esting</tspan><tspan class="cls-10" x="0" y="104.84">C</tspan><tspan class="cls-13" x="20.68" y="104.84">o</tspan><tspan class="cls-4" x="39.7" y="104.84">-</tspan><tspan class="cls-14" x="50.61" y="104.84">w</tspan><tspan x="76.69" y="104.84">o</tspan><tspan class="cls-15" x="95.41" y="104.84">r</tspan><tspan x="107.3" y="104.84">king s</tspan><tspan class="cls-16" x="196.84" y="104.84">p</tspan><tspan x="216.81" y="104.84">a</tspan><tspan class="cls-17" x="234.45" y="104.84">c</tspan><tspan x="251.05" y="104.84">e</tspan></text><line class="cls-18" x1="385.67" y1="70.42" x2="385.67" y2="202.61"/></svg>