<?xml version="1.0" encoding="utf-8"?>
<!-- Generator: Adobe Illustrator 25.0.0, SVG Export Plug-In . SVG Version: 6.00 Build 0)  -->
<svg version="1.1" id="Layer_1" xmlns="http://www.w3.org/2000/svg" xmlns:xlink="http://www.w3.org/1999/xlink" x="0px" y="0px"
	 viewBox="0 0 512 512" style="enable-background:new 0 0 512 512;" xml:space="preserve">
<style type="text/css">
	.st0{fill:#FFFFFF;}
	.st1{fill:url(#SVGID_1_);}
</style>
<g>
	<g>
		<path class="st0" d="M379.6,338H132.4c-4.1,0-8.2-0.2-12.3-0.6c-60.5-6.2-106.2-56.8-106.2-117.7c0-65.2,53.1-118.3,118.5-118.3
			c2,0,4.1,0.1,6.1,0.2c10.4-55.5,58.9-96.2,116.4-96.2c57.6,0,106,40.8,116.4,96.4c2.8-0.2,5.5-0.3,8.3-0.3
			c65.3,0,118.5,53.1,118.5,118.3c0,59.3-44.3,109.7-103.1,117.3C390,337.7,384.8,338,379.6,338z M132.4,120.7
			c-54.6,0-99.1,44.4-99.1,99c0,50.9,38.2,93.2,88.8,98.4c3.4,0.4,6.8,0.5,10.3,0.5h247.2c4.4,0,8.7-0.3,12.9-0.8
			c49.2-6.4,86.2-48.6,86.2-98.1c0-54.6-44.5-99-99.1-99c-5.1,0-10.1,0.4-15.1,1.1l-10,1.5l-1-10.1c-5.3-50.5-47.6-88.6-98.5-88.6
			c-50.8,0-93.2,38-98.5,88.4l-1.1,10l-9.9-1.4C141.2,121,136.9,120.7,132.4,120.7z"/>
	</g>
	<g>
		<path class="st0" d="M436.3,275.7c-2,0-4-0.6-5.7-1.9c-4.3-3.2-5.2-9.2-2-13.5c11.3-15.3,15.8-30.4,13.3-44.8
			c-4.2-24.1-26-39-26.3-39.1c-4.4-3-5.6-9-2.6-13.4c3-4.4,9-5.6,13.4-2.6c1.2,0.8,29,19.8,34.5,51.9c3.4,19.8-2.2,39.8-16.8,59.6
			C442.2,274.3,439.2,275.7,436.3,275.7z"/>
	</g>
	<g>
		<path class="st0" d="M311.6,98.4c-4,0-7.8-2.5-9.1-6.5c-3.7-10.5-9.3-17.4-17.3-21.1c-14.7-6.9-32.6-0.3-32.8-0.2
			c-5,1.9-10.6-0.6-12.5-5.6c-1.9-5,0.6-10.6,5.5-12.5c1-0.4,25.5-9.6,47.7,0.7c12.8,5.9,22.1,16.8,27.5,32.4
			c1.8,5-0.9,10.6-5.9,12.3C313.8,98.3,312.7,98.4,311.6,98.4z"/>
	</g>
	<linearGradient id="SVGID_1_" gradientUnits="userSpaceOnUse" x1="255.9981" y1="189.9612" x2="255.9981" y2="553.1633">
		<stop  offset="0" style="stop-color:#65C080"/>
		<stop  offset="1" style="stop-color:#1E9CB8"/>
	</linearGradient>
	<polygon class="st1" points="307.2,378 307.2,235.2 203.5,235.2 203.5,378 165,378 256,506.7 347,378 	"/>
</g>
</svg>
