<svg id="Layer_1" data-name="Layer 1" xmlns="http://www.w3.org/2000/svg" xmlns:xlink="http://www.w3.org/1999/xlink" viewBox="0 0 59.88 59.88"><defs><style>.cls-1{fill:url(#linear-gradient);}.cls-2{fill:#fff;}</style><linearGradient id="linear-gradient" x1="0.91" y1="1238.06" x2="96.92" y2="1238.06" gradientTransform="matrix(1, 0, 0, -1, 0, 1268)" gradientUnits="userSpaceOnUse"><stop offset="0" stop-color="#60c380"/><stop offset="0.1" stop-color="#53bb8b"/><stop offset="0.4" stop-color="#2da4ab"/><stop offset="0.56" stop-color="#1e9bb7"/></linearGradient></defs><circle class="cls-1" cx="29.94" cy="29.94" r="29.94"/><path class="cls-2" d="M46,19.83a13.28,13.28,0,0,1-3.27.93c.53-.09,1.3-1,1.61-1.42a6.07,6.07,0,0,0,1.08-2c0-.06,0-.13,0-.17a.2.2,0,0,0-.17,0,16.81,16.81,0,0,1-3.87,1.48.26.26,0,0,1-.27-.07,2.83,2.83,0,0,0-.34-.35,6.6,6.6,0,0,0-1.88-1.15A6.45,6.45,0,0,0,36,16.65a6.85,6.85,0,0,0-2.73.77,7,7,0,0,0-2.2,1.8,6.87,6.87,0,0,0-1.32,2.63,7,7,0,0,0-.07,2.78c0,.16,0,.18-.13.16C24.19,24,19.78,22.09,16.2,18c-.16-.18-.24-.18-.37,0C14.26,20.38,15,24.15,17,26c.26.25.53.49.82.72A6.81,6.81,0,0,1,15.23,26c-.16-.1-.23,0-.25.13a5,5,0,0,0,0,.76,6.82,6.82,0,0,0,4.21,5.44,4.18,4.18,0,0,0,.85.26,7.82,7.82,0,0,1-2.52.08c-.18,0-.25.06-.18.23a7.08,7.08,0,0,0,5.29,4.43c.24,0,.48,0,.72.1,0,0,0,0,0,0-.59.91-2.65,1.58-3.61,1.92a13,13,0,0,1-5.49.7c-.3,0-.36,0-.44,0s0,.12.08.2c.37.25.76.47,1.14.68a17.92,17.92,0,0,0,3.67,1.47c6.59,1.82,14,.48,19-4.44,3.89-3.86,5.25-9.19,5.25-14.53,0-.21.25-.32.39-.43a12.67,12.67,0,0,0,2.58-2.69.81.81,0,0,0,.17-.51v0C46.09,19.74,46.09,19.77,46,19.83Z"/></svg>